<svg xmlns="http://www.w3.org/2000/svg" viewBox="0 0 348 336" width="348" height="336">
<rect x="0" y="0" width="348" height="336" fill="#131311"/>
<g fill="#f0efe8">
<rect x="212" y="8" width="16" height="4"/>
<rect x="208" y="12" width="32" height="4"/>
<rect x="208" y="16" width="44" height="4"/>
<rect x="208" y="20" width="44" height="4"/>
<rect x="208" y="24" width="44" height="4"/>
<rect x="272" y="24" width="16" height="4"/>
<rect x="204" y="28" width="52" height="4"/>
<rect x="272" y="28" width="28" height="4"/>
<rect x="204" y="32" width="24" height="4"/>
<rect x="232" y="32" width="84" height="4"/>
<rect x="204" y="36" width="20" height="4"/>
<rect x="232" y="36" width="84" height="4"/>
<rect x="204" y="40" width="20" height="4"/>
<rect x="232" y="40" width="84" height="4"/>
<rect x="200" y="44" width="24" height="4"/>
<rect x="248" y="44" width="68" height="4"/>
<rect x="200" y="48" width="24" height="4"/>
<rect x="264" y="48" width="24" height="4"/>
<rect x="292" y="48" width="20" height="4"/>
<rect x="200" y="52" width="20" height="4"/>
<rect x="228" y="52" width="20" height="4"/>
<rect x="276" y="52" width="8" height="4"/>
<rect x="292" y="52" width="20" height="4"/>
<rect x="196" y="56" width="24" height="4"/>
<rect x="228" y="56" width="36" height="4"/>
<rect x="292" y="56" width="20" height="4"/>
<rect x="196" y="60" width="24" height="4"/>
<rect x="228" y="60" width="48" height="4"/>
<rect x="292" y="60" width="16" height="4"/>
<rect x="196" y="64" width="20" height="4"/>
<rect x="232" y="64" width="48" height="4"/>
<rect x="288" y="64" width="20" height="4"/>
<rect x="196" y="68" width="20" height="4"/>
<rect x="248" y="68" width="32" height="4"/>
<rect x="288" y="68" width="20" height="4"/>
<rect x="192" y="72" width="24" height="4"/>
<rect x="224" y="72" width="12" height="4"/>
<rect x="264" y="72" width="16" height="4"/>
<rect x="288" y="72" width="20" height="4"/>
<rect x="192" y="76" width="24" height="4"/>
<rect x="224" y="76" width="24" height="4"/>
<rect x="284" y="76" width="20" height="4"/>
<rect x="192" y="80" width="20" height="4"/>
<rect x="220" y="80" width="44" height="4"/>
<rect x="284" y="80" width="20" height="4"/>
<rect x="176" y="84" width="8" height="4"/>
<rect x="192" y="84" width="20" height="4"/>
<rect x="220" y="84" width="56" height="4"/>
<rect x="284" y="84" width="20" height="4"/>
<rect x="172" y="88" width="40" height="4"/>
<rect x="220" y="88" width="56" height="4"/>
<rect x="284" y="88" width="20" height="4"/>
<rect x="172" y="92" width="40" height="4"/>
<rect x="216" y="92" width="56" height="4"/>
<rect x="280" y="92" width="20" height="4"/>
<rect x="156" y="96" width="52" height="4"/>
<rect x="216" y="96" width="56" height="4"/>
<rect x="280" y="96" width="20" height="4"/>
<rect x="152" y="100" width="56" height="4"/>
<rect x="220" y="100" width="52" height="4"/>
<rect x="280" y="100" width="20" height="4"/>
<rect x="152" y="104" width="48" height="4"/>
<rect x="236" y="104" width="36" height="4"/>
<rect x="280" y="104" width="16" height="4"/>
<rect x="152" y="108" width="44" height="4"/>
<rect x="204" y="108" width="16" height="4"/>
<rect x="252" y="108" width="16" height="4"/>
<rect x="276" y="108" width="20" height="4"/>
<rect x="152" y="112" width="36" height="4"/>
<rect x="196" y="112" width="40" height="4"/>
<rect x="264" y="112" width="4" height="4"/>
<rect x="276" y="112" width="20" height="4"/>
<rect x="148" y="116" width="32" height="4"/>
<rect x="188" y="116" width="4" height="4"/>
<rect x="196" y="116" width="56" height="4"/>
<rect x="276" y="116" width="20" height="4"/>
<rect x="148" y="120" width="24" height="4"/>
<rect x="188" y="120" width="76" height="4"/>
<rect x="272" y="120" width="20" height="4"/>
<rect x="148" y="124" width="20" height="4"/>
<rect x="192" y="124" width="72" height="4"/>
<rect x="272" y="124" width="20" height="4"/>
<rect x="148" y="128" width="20" height="4"/>
<rect x="208" y="128" width="48" height="4"/>
<rect x="272" y="128" width="20" height="4"/>
<rect x="144" y="132" width="24" height="4"/>
<rect x="224" y="132" width="24" height="4"/>
<rect x="272" y="132" width="20" height="4"/>
<rect x="80" y="136" width="84" height="4"/>
<rect x="236" y="136" width="8" height="4"/>
<rect x="268" y="136" width="20" height="4"/>
<rect x="80" y="140" width="84" height="4"/>
<rect x="268" y="140" width="20" height="4"/>
<rect x="40" y="144" width="124" height="4"/>
<rect x="172" y="144" width="8" height="4"/>
<rect x="268" y="144" width="20" height="4"/>
<rect x="40" y="148" width="124" height="4"/>
<rect x="172" y="148" width="16" height="4"/>
<rect x="268" y="148" width="20" height="4"/>
<rect x="40" y="152" width="120" height="4"/>
<rect x="168" y="152" width="16" height="4"/>
<rect x="192" y="152" width="16" height="4"/>
<rect x="248" y="152" width="8" height="4"/>
<rect x="264" y="152" width="20" height="4"/>
<rect x="40" y="156" width="120" height="4"/>
<rect x="168" y="156" width="16" height="4"/>
<rect x="192" y="156" width="32" height="4"/>
<rect x="240" y="156" width="16" height="4"/>
<rect x="264" y="156" width="20" height="4"/>
<rect x="40" y="160" width="60" height="4"/>
<rect x="128" y="160" width="32" height="4"/>
<rect x="168" y="160" width="16" height="4"/>
<rect x="192" y="160" width="40" height="4"/>
<rect x="240" y="160" width="16" height="4"/>
<rect x="264" y="160" width="40" height="4"/>
<rect x="40" y="164" width="60" height="4"/>
<rect x="128" y="164" width="32" height="4"/>
<rect x="168" y="164" width="16" height="4"/>
<rect x="192" y="164" width="36" height="4"/>
<rect x="236" y="164" width="16" height="4"/>
<rect x="260" y="164" width="44" height="4"/>
<rect x="24" y="168" width="44" height="4"/>
<rect x="100" y="168" width="28" height="4"/>
<rect x="144" y="168" width="12" height="4"/>
<rect x="164" y="168" width="16" height="4"/>
<rect x="188" y="168" width="40" height="4"/>
<rect x="236" y="168" width="16" height="4"/>
<rect x="260" y="168" width="56" height="4"/>
<rect x="24" y="172" width="44" height="4"/>
<rect x="96" y="172" width="36" height="4"/>
<rect x="144" y="172" width="12" height="4"/>
<rect x="164" y="172" width="16" height="4"/>
<rect x="188" y="172" width="40" height="4"/>
<rect x="236" y="172" width="16" height="4"/>
<rect x="260" y="172" width="56" height="4"/>
<rect x="24" y="176" width="36" height="4"/>
<rect x="68" y="176" width="88" height="4"/>
<rect x="164" y="176" width="16" height="4"/>
<rect x="188" y="176" width="40" height="4"/>
<rect x="236" y="176" width="16" height="4"/>
<rect x="260" y="176" width="56" height="4"/>
<rect x="24" y="180" width="36" height="4"/>
<rect x="68" y="180" width="32" height="4"/>
<rect x="116" y="180" width="8" height="4"/>
<rect x="128" y="180" width="24" height="4"/>
<rect x="160" y="180" width="16" height="4"/>
<rect x="184" y="180" width="40" height="4"/>
<rect x="232" y="180" width="16" height="4"/>
<rect x="256" y="180" width="72" height="4"/>
<rect x="12" y="184" width="48" height="4"/>
<rect x="68" y="184" width="32" height="4"/>
<rect x="128" y="184" width="24" height="4"/>
<rect x="160" y="184" width="20" height="4"/>
<rect x="184" y="184" width="40" height="4"/>
<rect x="232" y="184" width="16" height="4"/>
<rect x="256" y="184" width="12" height="4"/>
<rect x="284" y="184" width="44" height="4"/>
<rect x="8" y="188" width="40" height="4"/>
<rect x="60" y="188" width="24" height="4"/>
<rect x="100" y="188" width="32" height="4"/>
<rect x="136" y="188" width="16" height="4"/>
<rect x="160" y="188" width="64" height="4"/>
<rect x="232" y="188" width="16" height="4"/>
<rect x="256" y="188" width="72" height="4"/>
<rect x="8" y="192" width="36" height="4"/>
<rect x="60" y="192" width="24" height="4"/>
<rect x="100" y="192" width="28" height="4"/>
<rect x="136" y="192" width="16" height="4"/>
<rect x="160" y="192" width="64" height="4"/>
<rect x="232" y="192" width="16" height="4"/>
<rect x="256" y="192" width="28" height="4"/>
<rect x="300" y="192" width="40" height="4"/>
<rect x="8" y="196" width="32" height="4"/>
<rect x="44" y="196" width="104" height="4"/>
<rect x="156" y="196" width="64" height="4"/>
<rect x="228" y="196" width="16" height="4"/>
<rect x="252" y="196" width="48" height="4"/>
<rect x="304" y="196" width="36" height="4"/>
<rect x="8" y="200" width="28" height="4"/>
<rect x="44" y="200" width="104" height="4"/>
<rect x="156" y="200" width="64" height="4"/>
<rect x="228" y="200" width="16" height="4"/>
<rect x="252" y="200" width="48" height="4"/>
<rect x="308" y="200" width="32" height="4"/>
<rect x="8" y="204" width="24" height="4"/>
<rect x="36" y="204" width="40" height="4"/>
<rect x="84" y="204" width="64" height="4"/>
<rect x="156" y="204" width="64" height="4"/>
<rect x="228" y="204" width="80" height="4"/>
<rect x="312" y="204" width="28" height="4"/>
<rect x="8" y="208" width="20" height="4"/>
<rect x="36" y="208" width="40" height="4"/>
<rect x="84" y="208" width="132" height="4"/>
<rect x="224" y="208" width="84" height="4"/>
<rect x="316" y="208" width="24" height="4"/>
<rect x="8" y="212" width="20" height="4"/>
<rect x="36" y="212" width="48" height="4"/>
<rect x="100" y="212" width="116" height="4"/>
<rect x="224" y="212" width="52" height="4"/>
<rect x="292" y="212" width="24" height="4"/>
<rect x="320" y="212" width="20" height="4"/>
<rect x="8" y="216" width="20" height="4"/>
<rect x="36" y="216" width="48" height="4"/>
<rect x="100" y="216" width="116" height="4"/>
<rect x="224" y="216" width="52" height="4"/>
<rect x="292" y="216" width="24" height="4"/>
<rect x="324" y="216" width="16" height="4"/>
<rect x="8" y="220" width="28" height="4"/>
<rect x="52" y="220" width="48" height="4"/>
<rect x="108" y="220" width="16" height="4"/>
<rect x="128" y="220" width="88" height="4"/>
<rect x="224" y="220" width="36" height="4"/>
<rect x="276" y="220" width="40" height="4"/>
<rect x="320" y="220" width="20" height="4"/>
<rect x="8" y="224" width="28" height="4"/>
<rect x="52" y="224" width="48" height="4"/>
<rect x="108" y="224" width="16" height="4"/>
<rect x="128" y="224" width="88" height="4"/>
<rect x="220" y="224" width="40" height="4"/>
<rect x="276" y="224" width="40" height="4"/>
<rect x="320" y="224" width="20" height="4"/>
<rect x="8" y="228" width="44" height="4"/>
<rect x="60" y="228" width="40" height="4"/>
<rect x="108" y="228" width="20" height="4"/>
<rect x="152" y="228" width="92" height="4"/>
<rect x="260" y="228" width="48" height="4"/>
<rect x="316" y="228" width="24" height="4"/>
<rect x="12" y="232" width="40" height="4"/>
<rect x="60" y="232" width="40" height="4"/>
<rect x="108" y="232" width="24" height="4"/>
<rect x="152" y="232" width="92" height="4"/>
<rect x="260" y="232" width="48" height="4"/>
<rect x="316" y="232" width="24" height="4"/>
<rect x="20" y="236" width="40" height="4"/>
<rect x="68" y="236" width="32" height="4"/>
<rect x="108" y="236" width="44" height="4"/>
<rect x="168" y="236" width="16" height="4"/>
<rect x="200" y="236" width="36" height="4"/>
<rect x="244" y="236" width="48" height="4"/>
<rect x="308" y="236" width="32" height="4"/>
<rect x="20" y="240" width="40" height="4"/>
<rect x="68" y="240" width="32" height="4"/>
<rect x="108" y="240" width="44" height="4"/>
<rect x="168" y="240" width="16" height="4"/>
<rect x="200" y="240" width="36" height="4"/>
<rect x="244" y="240" width="48" height="4"/>
<rect x="308" y="240" width="32" height="4"/>
<rect x="20" y="244" width="56" height="4"/>
<rect x="84" y="244" width="24" height="4"/>
<rect x="116" y="244" width="52" height="4"/>
<rect x="184" y="244" width="52" height="4"/>
<rect x="244" y="244" width="40" height="4"/>
<rect x="292" y="244" width="48" height="4"/>
<rect x="32" y="248" width="44" height="4"/>
<rect x="84" y="248" width="24" height="4"/>
<rect x="116" y="248" width="52" height="4"/>
<rect x="184" y="248" width="52" height="4"/>
<rect x="244" y="248" width="40" height="4"/>
<rect x="292" y="248" width="36" height="4"/>
<rect x="32" y="252" width="44" height="4"/>
<rect x="84" y="252" width="24" height="4"/>
<rect x="116" y="252" width="92" height="4"/>
<rect x="228" y="252" width="8" height="4"/>
<rect x="244" y="252" width="32" height="4"/>
<rect x="284" y="252" width="44" height="4"/>
<rect x="32" y="256" width="44" height="4"/>
<rect x="80" y="256" width="28" height="4"/>
<rect x="116" y="256" width="92" height="4"/>
<rect x="228" y="256" width="8" height="4"/>
<rect x="244" y="256" width="32" height="4"/>
<rect x="284" y="256" width="44" height="4"/>
<rect x="36" y="260" width="32" height="4"/>
<rect x="76" y="260" width="40" height="4"/>
<rect x="152" y="260" width="76" height="4"/>
<rect x="236" y="260" width="48" height="4"/>
<rect x="292" y="260" width="24" height="4"/>
<rect x="48" y="264" width="20" height="4"/>
<rect x="76" y="264" width="156" height="4"/>
<rect x="236" y="264" width="48" height="4"/>
<rect x="292" y="264" width="20" height="4"/>
<rect x="48" y="268" width="20" height="4"/>
<rect x="76" y="268" width="76" height="4"/>
<rect x="176" y="268" width="108" height="4"/>
<rect x="292" y="268" width="20" height="4"/>
<rect x="48" y="272" width="20" height="4"/>
<rect x="76" y="272" width="208" height="4"/>
<rect x="292" y="272" width="20" height="4"/>
<rect x="48" y="276" width="20" height="4"/>
<rect x="76" y="276" width="208" height="4"/>
<rect x="292" y="276" width="20" height="4"/>
<rect x="48" y="280" width="28" height="4"/>
<rect x="112" y="280" width="164" height="4"/>
<rect x="284" y="280" width="28" height="4"/>
<rect x="48" y="284" width="28" height="4"/>
<rect x="112" y="284" width="164" height="4"/>
<rect x="284" y="284" width="28" height="4"/>
<rect x="48" y="288" width="64" height="4"/>
<rect x="144" y="288" width="24" height="4"/>
<rect x="184" y="288" width="24" height="4"/>
<rect x="244" y="288" width="16" height="4"/>
<rect x="276" y="288" width="36" height="4"/>
<rect x="48" y="292" width="64" height="4"/>
<rect x="144" y="292" width="24" height="4"/>
<rect x="184" y="292" width="24" height="4"/>
<rect x="244" y="292" width="16" height="4"/>
<rect x="276" y="292" width="36" height="4"/>
<rect x="56" y="296" width="128" height="4"/>
<rect x="208" y="296" width="36" height="4"/>
<rect x="260" y="296" width="52" height="4"/>
<rect x="60" y="300" width="124" height="4"/>
<rect x="208" y="300" width="36" height="4"/>
<rect x="260" y="300" width="36" height="4"/>
<rect x="60" y="304" width="236" height="4"/>
<rect x="92" y="308" width="204" height="4"/>
<rect x="96" y="312" width="200" height="4"/>
<rect x="164" y="316" width="116" height="4"/>
<rect x="164" y="320" width="116" height="4"/>
<rect x="164" y="324" width="116" height="4"/>
</g>
<g fill="#131311">
<rect x="228" y="32" width="4" height="4"/>
<rect x="224" y="36" width="8" height="4"/>
<rect x="224" y="40" width="8" height="4"/>
<rect x="224" y="44" width="24" height="4"/>
<rect x="224" y="48" width="40" height="4"/>
<rect x="288" y="48" width="4" height="4"/>
<rect x="220" y="52" width="8" height="4"/>
<rect x="248" y="52" width="28" height="4"/>
<rect x="284" y="52" width="8" height="4"/>
<rect x="220" y="56" width="8" height="4"/>
<rect x="264" y="56" width="28" height="4"/>
<rect x="220" y="60" width="8" height="4"/>
<rect x="276" y="60" width="16" height="4"/>
<rect x="216" y="64" width="16" height="4"/>
<rect x="280" y="64" width="8" height="4"/>
<rect x="216" y="68" width="32" height="4"/>
<rect x="280" y="68" width="8" height="4"/>
<rect x="216" y="72" width="8" height="4"/>
<rect x="236" y="72" width="28" height="4"/>
<rect x="280" y="72" width="8" height="4"/>
<rect x="216" y="76" width="8" height="4"/>
<rect x="248" y="76" width="36" height="4"/>
<rect x="212" y="80" width="8" height="4"/>
<rect x="264" y="80" width="20" height="4"/>
<rect x="212" y="84" width="8" height="4"/>
<rect x="276" y="84" width="8" height="4"/>
<rect x="212" y="88" width="8" height="4"/>
<rect x="276" y="88" width="8" height="4"/>
<rect x="212" y="92" width="4" height="4"/>
<rect x="272" y="92" width="8" height="4"/>
<rect x="208" y="96" width="8" height="4"/>
<rect x="272" y="96" width="8" height="4"/>
<rect x="208" y="100" width="12" height="4"/>
<rect x="272" y="100" width="8" height="4"/>
<rect x="200" y="104" width="36" height="4"/>
<rect x="272" y="104" width="8" height="4"/>
<rect x="196" y="108" width="8" height="4"/>
<rect x="220" y="108" width="32" height="4"/>
<rect x="268" y="108" width="8" height="4"/>
<rect x="188" y="112" width="8" height="4"/>
<rect x="236" y="112" width="28" height="4"/>
<rect x="268" y="112" width="8" height="4"/>
<rect x="180" y="116" width="8" height="4"/>
<rect x="192" y="116" width="4" height="4"/>
<rect x="252" y="116" width="24" height="4"/>
<rect x="172" y="120" width="16" height="4"/>
<rect x="264" y="120" width="8" height="4"/>
<rect x="168" y="124" width="24" height="4"/>
<rect x="264" y="124" width="8" height="4"/>
<rect x="168" y="128" width="40" height="4"/>
<rect x="256" y="128" width="16" height="4"/>
<rect x="168" y="132" width="56" height="4"/>
<rect x="248" y="132" width="24" height="4"/>
<rect x="164" y="136" width="72" height="4"/>
<rect x="244" y="136" width="24" height="4"/>
<rect x="164" y="140" width="104" height="4"/>
<rect x="164" y="144" width="8" height="4"/>
<rect x="180" y="144" width="88" height="4"/>
<rect x="164" y="148" width="8" height="4"/>
<rect x="188" y="148" width="80" height="4"/>
<rect x="160" y="152" width="8" height="4"/>
<rect x="184" y="152" width="8" height="4"/>
<rect x="208" y="152" width="40" height="4"/>
<rect x="256" y="152" width="8" height="4"/>
<rect x="160" y="156" width="8" height="4"/>
<rect x="184" y="156" width="8" height="4"/>
<rect x="224" y="156" width="16" height="4"/>
<rect x="256" y="156" width="8" height="4"/>
<rect x="100" y="160" width="28" height="4"/>
<rect x="160" y="160" width="8" height="4"/>
<rect x="184" y="160" width="8" height="4"/>
<rect x="232" y="160" width="8" height="4"/>
<rect x="256" y="160" width="8" height="4"/>
<rect x="100" y="164" width="28" height="4"/>
<rect x="160" y="164" width="8" height="4"/>
<rect x="184" y="164" width="8" height="4"/>
<rect x="228" y="164" width="8" height="4"/>
<rect x="252" y="164" width="8" height="4"/>
<rect x="68" y="168" width="32" height="4"/>
<rect x="128" y="168" width="16" height="4"/>
<rect x="156" y="168" width="8" height="4"/>
<rect x="180" y="168" width="8" height="4"/>
<rect x="228" y="168" width="8" height="4"/>
<rect x="252" y="168" width="8" height="4"/>
<rect x="68" y="172" width="28" height="4"/>
<rect x="132" y="172" width="12" height="4"/>
<rect x="156" y="172" width="8" height="4"/>
<rect x="180" y="172" width="8" height="4"/>
<rect x="228" y="172" width="8" height="4"/>
<rect x="252" y="172" width="8" height="4"/>
<rect x="60" y="176" width="8" height="4"/>
<rect x="156" y="176" width="8" height="4"/>
<rect x="180" y="176" width="8" height="4"/>
<rect x="228" y="176" width="8" height="4"/>
<rect x="252" y="176" width="8" height="4"/>
<rect x="60" y="180" width="8" height="4"/>
<rect x="100" y="180" width="16" height="4"/>
<rect x="124" y="180" width="4" height="4"/>
<rect x="152" y="180" width="8" height="4"/>
<rect x="176" y="180" width="8" height="4"/>
<rect x="224" y="180" width="8" height="4"/>
<rect x="248" y="180" width="8" height="4"/>
<rect x="60" y="184" width="8" height="4"/>
<rect x="100" y="184" width="28" height="4"/>
<rect x="152" y="184" width="8" height="4"/>
<rect x="180" y="184" width="4" height="4"/>
<rect x="224" y="184" width="8" height="4"/>
<rect x="248" y="184" width="8" height="4"/>
<rect x="268" y="184" width="16" height="4"/>
<rect x="48" y="188" width="12" height="4"/>
<rect x="84" y="188" width="16" height="4"/>
<rect x="132" y="188" width="4" height="4"/>
<rect x="152" y="188" width="8" height="4"/>
<rect x="224" y="188" width="8" height="4"/>
<rect x="248" y="188" width="8" height="4"/>
<rect x="44" y="192" width="16" height="4"/>
<rect x="84" y="192" width="16" height="4"/>
<rect x="128" y="192" width="8" height="4"/>
<rect x="152" y="192" width="8" height="4"/>
<rect x="224" y="192" width="8" height="4"/>
<rect x="248" y="192" width="8" height="4"/>
<rect x="284" y="192" width="16" height="4"/>
<rect x="40" y="196" width="4" height="4"/>
<rect x="148" y="196" width="8" height="4"/>
<rect x="220" y="196" width="8" height="4"/>
<rect x="244" y="196" width="8" height="4"/>
<rect x="300" y="196" width="4" height="4"/>
<rect x="36" y="200" width="8" height="4"/>
<rect x="148" y="200" width="8" height="4"/>
<rect x="220" y="200" width="8" height="4"/>
<rect x="244" y="200" width="8" height="4"/>
<rect x="300" y="200" width="8" height="4"/>
<rect x="32" y="204" width="4" height="4"/>
<rect x="76" y="204" width="8" height="4"/>
<rect x="148" y="204" width="8" height="4"/>
<rect x="220" y="204" width="8" height="4"/>
<rect x="308" y="204" width="4" height="4"/>
<rect x="28" y="208" width="8" height="4"/>
<rect x="76" y="208" width="8" height="4"/>
<rect x="216" y="208" width="8" height="4"/>
<rect x="308" y="208" width="8" height="4"/>
<rect x="28" y="212" width="8" height="4"/>
<rect x="84" y="212" width="16" height="4"/>
<rect x="216" y="212" width="8" height="4"/>
<rect x="276" y="212" width="16" height="4"/>
<rect x="316" y="212" width="4" height="4"/>
<rect x="28" y="216" width="8" height="4"/>
<rect x="84" y="216" width="16" height="4"/>
<rect x="216" y="216" width="8" height="4"/>
<rect x="276" y="216" width="16" height="4"/>
<rect x="316" y="216" width="8" height="4"/>
<rect x="36" y="220" width="16" height="4"/>
<rect x="100" y="220" width="8" height="4"/>
<rect x="124" y="220" width="4" height="4"/>
<rect x="216" y="220" width="8" height="4"/>
<rect x="260" y="220" width="16" height="4"/>
<rect x="316" y="220" width="4" height="4"/>
<rect x="36" y="224" width="16" height="4"/>
<rect x="100" y="224" width="8" height="4"/>
<rect x="124" y="224" width="4" height="4"/>
<rect x="216" y="224" width="4" height="4"/>
<rect x="260" y="224" width="16" height="4"/>
<rect x="316" y="224" width="4" height="4"/>
<rect x="52" y="228" width="8" height="4"/>
<rect x="100" y="228" width="8" height="4"/>
<rect x="128" y="228" width="24" height="4"/>
<rect x="244" y="228" width="16" height="4"/>
<rect x="308" y="228" width="8" height="4"/>
<rect x="52" y="232" width="8" height="4"/>
<rect x="100" y="232" width="8" height="4"/>
<rect x="132" y="232" width="20" height="4"/>
<rect x="244" y="232" width="16" height="4"/>
<rect x="308" y="232" width="8" height="4"/>
<rect x="60" y="236" width="8" height="4"/>
<rect x="100" y="236" width="8" height="4"/>
<rect x="152" y="236" width="16" height="4"/>
<rect x="184" y="236" width="16" height="4"/>
<rect x="236" y="236" width="8" height="4"/>
<rect x="292" y="236" width="16" height="4"/>
<rect x="60" y="240" width="8" height="4"/>
<rect x="100" y="240" width="8" height="4"/>
<rect x="152" y="240" width="16" height="4"/>
<rect x="184" y="240" width="16" height="4"/>
<rect x="236" y="240" width="8" height="4"/>
<rect x="292" y="240" width="16" height="4"/>
<rect x="76" y="244" width="8" height="4"/>
<rect x="108" y="244" width="8" height="4"/>
<rect x="168" y="244" width="16" height="4"/>
<rect x="236" y="244" width="8" height="4"/>
<rect x="284" y="244" width="8" height="4"/>
<rect x="76" y="248" width="8" height="4"/>
<rect x="108" y="248" width="8" height="4"/>
<rect x="168" y="248" width="16" height="4"/>
<rect x="236" y="248" width="8" height="4"/>
<rect x="284" y="248" width="8" height="4"/>
<rect x="76" y="252" width="8" height="4"/>
<rect x="108" y="252" width="8" height="4"/>
<rect x="208" y="252" width="20" height="4"/>
<rect x="236" y="252" width="8" height="4"/>
<rect x="276" y="252" width="8" height="4"/>
<rect x="76" y="256" width="4" height="4"/>
<rect x="108" y="256" width="8" height="4"/>
<rect x="208" y="256" width="20" height="4"/>
<rect x="236" y="256" width="8" height="4"/>
<rect x="276" y="256" width="8" height="4"/>
<rect x="68" y="260" width="8" height="4"/>
<rect x="116" y="260" width="36" height="4"/>
<rect x="228" y="260" width="8" height="4"/>
<rect x="284" y="260" width="8" height="4"/>
<rect x="68" y="264" width="8" height="4"/>
<rect x="232" y="264" width="4" height="4"/>
<rect x="284" y="264" width="8" height="4"/>
<rect x="68" y="268" width="8" height="4"/>
<rect x="152" y="268" width="24" height="4"/>
<rect x="284" y="268" width="8" height="4"/>
<rect x="68" y="272" width="8" height="4"/>
<rect x="284" y="272" width="8" height="4"/>
<rect x="68" y="276" width="8" height="4"/>
<rect x="284" y="276" width="8" height="4"/>
<rect x="76" y="280" width="36" height="4"/>
<rect x="276" y="280" width="8" height="4"/>
<rect x="76" y="284" width="36" height="4"/>
<rect x="276" y="284" width="8" height="4"/>
<rect x="112" y="288" width="32" height="4"/>
<rect x="168" y="288" width="16" height="4"/>
<rect x="208" y="288" width="36" height="4"/>
<rect x="260" y="288" width="16" height="4"/>
<rect x="112" y="292" width="32" height="4"/>
<rect x="168" y="292" width="16" height="4"/>
<rect x="208" y="292" width="36" height="4"/>
<rect x="260" y="292" width="16" height="4"/>
<rect x="184" y="296" width="24" height="4"/>
<rect x="244" y="296" width="16" height="4"/>
<rect x="184" y="300" width="24" height="4"/>
<rect x="244" y="300" width="16" height="4"/>
</g>
</svg>